# xmcd CD database file
#
# Track frame offsets:
#	150
#	20720
#	38590
#	62195
#
# Disc length: 1102 seconds
#
# Revision: 1
# Processed by: cddbd v1.5PL3 Copyright (c) Steve Scherf et al.
# Submitted via: CDex 1.51
#
DISCID=2e044c04
DTITLE=COLOR - Rav and Business
DYEAR=2001
DGENRE=JPop
TTITLE0=Rav and Business
TTITLE1=あなたを愛す私を愛す
TTITLE2=Circle Game
TTITLE3=Rav and Business (INSTRUMENTAL)
EXTD=YEAR: 2001
EXTT0=
EXTT1=
EXTT2=
EXTT3=
PLAYORDER=
